<mxfile host="Electron" agent="Mozilla/5.0 (Windows NT 10.0; Win64; x64) AppleWebKit/537.36 (KHTML, like Gecko) draw.io/26.0.9 Chrome/128.0.6613.186 Electron/32.2.5 Safari/537.36" version="26.0.9">
  <diagram id="Ht1M8jgEwFfnCIfOTk4-" name="Sanlam Sentiment Analysis POC">
    <mxGraphModel dx="2603" dy="1663" grid="1" gridSize="10" guides="1" tooltips="1" connect="1" arrows="1" fold="1" page="1" pageScale="1" pageWidth="1169" pageHeight="827" background="none" math="0" shadow="0">
      <root>
        <mxCell id="0" />
        <mxCell id="1" parent="0" />
        <mxCell id="FhhzzfspUSYX_n4B29iU-108" value="" style="rounded=1;whiteSpace=wrap;html=1;" vertex="1" parent="1">
          <mxGeometry x="-30" y="-90" width="1950" height="1060" as="geometry" />
        </mxCell>
        <mxCell id="FhhzzfspUSYX_n4B29iU-105" value="" style="rounded=1;whiteSpace=wrap;html=1;textOpacity=0;fontColor=none;noLabel=1;" vertex="1" parent="1">
          <mxGeometry x="700" y="7" width="1000" height="600" as="geometry" />
        </mxCell>
        <mxCell id="FhhzzfspUSYX_n4B29iU-104" style="edgeStyle=orthogonalEdgeStyle;rounded=0;orthogonalLoop=1;jettySize=auto;html=1;" edge="1" parent="1" source="FhhzzfspUSYX_n4B29iU-99">
          <mxGeometry relative="1" as="geometry">
            <mxPoint x="345" y="10" as="targetPoint" />
          </mxGeometry>
        </mxCell>
        <mxCell id="FhhzzfspUSYX_n4B29iU-99" value="" style="rounded=1;whiteSpace=wrap;html=1;textOpacity=0;fontColor=none;noLabel=1;" vertex="1" parent="1">
          <mxGeometry y="15" width="690" height="545" as="geometry" />
        </mxCell>
        <mxCell id="FhhzzfspUSYX_n4B29iU-1" value="Data Sources" style="swimlane;horizontal=0;whiteSpace=wrap;html=1;" vertex="1" parent="1">
          <mxGeometry x="20" y="90" width="140" height="430" as="geometry" />
        </mxCell>
        <mxCell id="FhhzzfspUSYX_n4B29iU-2" value="" style="dashed=0;outlineConnect=0;html=1;align=center;labelPosition=center;verticalLabelPosition=bottom;verticalAlign=top;shape=mxgraph.weblogos.twitter;fillColor=#1DA1F2;strokeColor=none" vertex="1" parent="FhhzzfspUSYX_n4B29iU-1">
          <mxGeometry x="40" y="30" width="80" height="70" as="geometry" />
        </mxCell>
        <mxCell id="FhhzzfspUSYX_n4B29iU-3" value="" style="dashed=0;outlineConnect=0;html=1;align=center;labelPosition=center;verticalLabelPosition=bottom;verticalAlign=top;shape=mxgraph.weblogos.linkedin;fillColor=#0095DB;gradientColor=#006391" vertex="1" parent="FhhzzfspUSYX_n4B29iU-1">
          <mxGeometry x="51.3" y="120" width="57.400000000000006" height="60.6" as="geometry" />
        </mxCell>
        <mxCell id="FhhzzfspUSYX_n4B29iU-4" value="" style="dashed=0;outlineConnect=0;html=1;align=center;labelPosition=center;verticalLabelPosition=bottom;verticalAlign=top;shape=mxgraph.weblogos.instagram;fillColor=#6FC0E4;gradientColor=#1E305B" vertex="1" parent="FhhzzfspUSYX_n4B29iU-1">
          <mxGeometry x="43.9" y="210" width="72.2" height="72.2" as="geometry" />
        </mxCell>
        <mxCell id="FhhzzfspUSYX_n4B29iU-35" value="" style="dashed=0;outlineConnect=0;html=1;align=center;labelPosition=center;verticalLabelPosition=bottom;verticalAlign=top;shape=mxgraph.webicons.facebook;fillColor=#6294E4;gradientColor=#1A2665" vertex="1" parent="FhhzzfspUSYX_n4B29iU-1">
          <mxGeometry x="27.5" y="320" width="81.2" height="80" as="geometry" />
        </mxCell>
        <mxCell id="FhhzzfspUSYX_n4B29iU-49" style="edgeStyle=orthogonalEdgeStyle;rounded=0;orthogonalLoop=1;jettySize=auto;html=1;exitX=0.995;exitY=0.63;exitDx=0;exitDy=0;exitPerimeter=0;" edge="1" parent="1" source="FhhzzfspUSYX_n4B29iU-15" target="FhhzzfspUSYX_n4B29iU-48">
          <mxGeometry relative="1" as="geometry" />
        </mxCell>
        <mxCell id="FhhzzfspUSYX_n4B29iU-15" value="" style="aspect=fixed;sketch=0;html=1;dashed=0;whitespace=wrap;verticalLabelPosition=bottom;verticalAlign=top;fillColor=#2875E2;strokeColor=#ffffff;points=[[0.005,0.63,0],[0.1,0.2,0],[0.9,0.2,0],[0.5,0,0],[0.995,0.63,0],[0.72,0.99,0],[0.5,1,0],[0.28,0.99,0]];shape=mxgraph.kubernetes.icon2;kubernetesLabel=1;prIcon=api" vertex="1" parent="1">
          <mxGeometry x="220" y="131" width="50" height="48" as="geometry" />
        </mxCell>
        <mxCell id="FhhzzfspUSYX_n4B29iU-17" style="edgeStyle=orthogonalEdgeStyle;rounded=0;orthogonalLoop=1;jettySize=auto;html=1;entryX=0.08;entryY=0.5;entryDx=0;entryDy=0;entryPerimeter=0;" edge="1" parent="1" source="FhhzzfspUSYX_n4B29iU-2" target="FhhzzfspUSYX_n4B29iU-15">
          <mxGeometry relative="1" as="geometry" />
        </mxCell>
        <mxCell id="FhhzzfspUSYX_n4B29iU-50" style="edgeStyle=orthogonalEdgeStyle;rounded=0;orthogonalLoop=1;jettySize=auto;html=1;exitX=0.995;exitY=0.63;exitDx=0;exitDy=0;exitPerimeter=0;" edge="1" parent="1" source="FhhzzfspUSYX_n4B29iU-18" target="FhhzzfspUSYX_n4B29iU-48">
          <mxGeometry relative="1" as="geometry" />
        </mxCell>
        <mxCell id="FhhzzfspUSYX_n4B29iU-18" value="" style="aspect=fixed;sketch=0;html=1;dashed=0;whitespace=wrap;verticalLabelPosition=bottom;verticalAlign=top;fillColor=#2875E2;strokeColor=#ffffff;points=[[0.005,0.63,0],[0.1,0.2,0],[0.9,0.2,0],[0.5,0,0],[0.995,0.63,0],[0.72,0.99,0],[0.5,1,0],[0.28,0.99,0]];shape=mxgraph.kubernetes.icon2;kubernetesLabel=1;prIcon=api" vertex="1" parent="1">
          <mxGeometry x="220" y="223" width="50" height="48" as="geometry" />
        </mxCell>
        <mxCell id="FhhzzfspUSYX_n4B29iU-19" style="edgeStyle=orthogonalEdgeStyle;rounded=0;orthogonalLoop=1;jettySize=auto;html=1;" edge="1" parent="1" source="FhhzzfspUSYX_n4B29iU-3" target="FhhzzfspUSYX_n4B29iU-18">
          <mxGeometry relative="1" as="geometry" />
        </mxCell>
        <mxCell id="FhhzzfspUSYX_n4B29iU-20" value="" style="aspect=fixed;sketch=0;html=1;dashed=0;whitespace=wrap;verticalLabelPosition=bottom;verticalAlign=top;fillColor=#2875E2;strokeColor=#ffffff;points=[[0.005,0.63,0],[0.1,0.2,0],[0.9,0.2,0],[0.5,0,0],[0.995,0.63,0],[0.72,0.99,0],[0.5,1,0],[0.28,0.99,0]];shape=mxgraph.kubernetes.icon2;kubernetesLabel=1;prIcon=api" vertex="1" parent="1">
          <mxGeometry x="220" y="430" width="50" height="48" as="geometry" />
        </mxCell>
        <mxCell id="FhhzzfspUSYX_n4B29iU-21" style="edgeStyle=orthogonalEdgeStyle;rounded=0;orthogonalLoop=1;jettySize=auto;html=1;" edge="1" parent="1" source="FhhzzfspUSYX_n4B29iU-4" target="FhhzzfspUSYX_n4B29iU-22">
          <mxGeometry relative="1" as="geometry">
            <mxPoint x="220" y="336" as="targetPoint" />
          </mxGeometry>
        </mxCell>
        <mxCell id="FhhzzfspUSYX_n4B29iU-22" value="" style="aspect=fixed;sketch=0;html=1;dashed=0;whitespace=wrap;verticalLabelPosition=bottom;verticalAlign=top;fillColor=#2875E2;strokeColor=#ffffff;points=[[0.005,0.63,0],[0.1,0.2,0],[0.9,0.2,0],[0.5,0,0],[0.995,0.63,0],[0.72,0.99,0],[0.5,1,0],[0.28,0.99,0]];shape=mxgraph.kubernetes.icon2;kubernetesLabel=1;prIcon=api" vertex="1" parent="1">
          <mxGeometry x="220" y="319.3" width="42.5" height="40.8" as="geometry" />
        </mxCell>
        <mxCell id="FhhzzfspUSYX_n4B29iU-24" style="edgeStyle=orthogonalEdgeStyle;rounded=0;orthogonalLoop=1;jettySize=auto;html=1;entryX=-0.06;entryY=0.458;entryDx=0;entryDy=0;entryPerimeter=0;" edge="1" parent="1" target="FhhzzfspUSYX_n4B29iU-20">
          <mxGeometry relative="1" as="geometry">
            <mxPoint x="129.79999999999995" y="449.5" as="sourcePoint" />
          </mxGeometry>
        </mxCell>
        <mxCell id="FhhzzfspUSYX_n4B29iU-34" style="edgeStyle=orthogonalEdgeStyle;rounded=0;orthogonalLoop=1;jettySize=auto;html=1;exitX=0.5;exitY=1;exitDx=0;exitDy=0;" edge="1" parent="1" source="FhhzzfspUSYX_n4B29iU-25">
          <mxGeometry relative="1" as="geometry">
            <mxPoint x="400" y="590" as="targetPoint" />
          </mxGeometry>
        </mxCell>
        <mxCell id="FhhzzfspUSYX_n4B29iU-25" value="Unprocessed Data Storage" style="swimlane;horizontal=0;whiteSpace=wrap;html=1;" vertex="1" parent="1">
          <mxGeometry x="460" y="80" width="160" height="430" as="geometry" />
        </mxCell>
        <mxCell id="FhhzzfspUSYX_n4B29iU-26" value="" style="dashed=0;outlineConnect=0;html=1;align=center;labelPosition=center;verticalLabelPosition=bottom;verticalAlign=top;shape=mxgraph.weblogos.json" vertex="1" parent="FhhzzfspUSYX_n4B29iU-25">
          <mxGeometry x="65" y="41" width="70" height="75.8" as="geometry" />
        </mxCell>
        <mxCell id="FhhzzfspUSYX_n4B29iU-27" value="" style="dashed=0;outlineConnect=0;html=1;align=center;labelPosition=center;verticalLabelPosition=bottom;verticalAlign=top;shape=mxgraph.weblogos.json" vertex="1" parent="FhhzzfspUSYX_n4B29iU-25">
          <mxGeometry x="60" y="140" width="70" height="75.8" as="geometry" />
        </mxCell>
        <mxCell id="FhhzzfspUSYX_n4B29iU-28" value="" style="dashed=0;outlineConnect=0;html=1;align=center;labelPosition=center;verticalLabelPosition=bottom;verticalAlign=top;shape=mxgraph.weblogos.json" vertex="1" parent="FhhzzfspUSYX_n4B29iU-25">
          <mxGeometry x="60" y="240" width="70" height="75.8" as="geometry" />
        </mxCell>
        <mxCell id="FhhzzfspUSYX_n4B29iU-29" value="" style="dashed=0;outlineConnect=0;html=1;align=center;labelPosition=center;verticalLabelPosition=bottom;verticalAlign=top;shape=mxgraph.weblogos.json" vertex="1" parent="FhhzzfspUSYX_n4B29iU-25">
          <mxGeometry x="60" y="340" width="70" height="75.8" as="geometry" />
        </mxCell>
        <mxCell id="FhhzzfspUSYX_n4B29iU-38" style="edgeStyle=orthogonalEdgeStyle;rounded=0;orthogonalLoop=1;jettySize=auto;html=1;" edge="1" parent="1" target="FhhzzfspUSYX_n4B29iU-37">
          <mxGeometry relative="1" as="geometry">
            <mxPoint x="398.29999999999995" y="683" as="sourcePoint" />
          </mxGeometry>
        </mxCell>
        <mxCell id="FhhzzfspUSYX_n4B29iU-37" value="Raw Secured Storage S3/" style="swimlane;whiteSpace=wrap;html=1;" vertex="1" parent="1">
          <mxGeometry x="228.25" y="750" width="340" height="140" as="geometry" />
        </mxCell>
        <mxCell id="FhhzzfspUSYX_n4B29iU-45" value="" style="dashed=0;outlineConnect=0;html=1;align=center;labelPosition=center;verticalLabelPosition=bottom;verticalAlign=top;shape=mxgraph.weblogos.json" vertex="1" parent="FhhzzfspUSYX_n4B29iU-37">
          <mxGeometry x="86.75" y="39" width="70" height="75.8" as="geometry" />
        </mxCell>
        <mxCell id="FhhzzfspUSYX_n4B29iU-44" value="" style="dashed=0;outlineConnect=0;html=1;align=center;labelPosition=center;verticalLabelPosition=bottom;verticalAlign=top;shape=mxgraph.weblogos.json" vertex="1" parent="FhhzzfspUSYX_n4B29iU-37">
          <mxGeometry x="171.75" y="39" width="70" height="75.8" as="geometry" />
        </mxCell>
        <mxCell id="FhhzzfspUSYX_n4B29iU-43" value="" style="dashed=0;outlineConnect=0;html=1;align=center;labelPosition=center;verticalLabelPosition=bottom;verticalAlign=top;shape=mxgraph.weblogos.json" vertex="1" parent="FhhzzfspUSYX_n4B29iU-37">
          <mxGeometry x="251.75" y="39" width="70" height="75.8" as="geometry" />
        </mxCell>
        <mxCell id="FhhzzfspUSYX_n4B29iU-46" value="" style="dashed=0;outlineConnect=0;html=1;align=center;labelPosition=center;verticalLabelPosition=bottom;verticalAlign=top;shape=mxgraph.weblogos.json" vertex="1" parent="1">
          <mxGeometry x="240" y="789" width="70" height="75.8" as="geometry" />
        </mxCell>
        <mxCell id="FhhzzfspUSYX_n4B29iU-47" value="" style="points=[];aspect=fixed;html=1;align=center;shadow=0;dashed=0;fillColor=#FF6A00;strokeColor=none;shape=mxgraph.alibaba_cloud.batchcompute;" vertex="1" parent="1">
          <mxGeometry x="354.37" y="590" width="87.76" height="90" as="geometry" />
        </mxCell>
        <mxCell id="FhhzzfspUSYX_n4B29iU-53" style="edgeStyle=orthogonalEdgeStyle;rounded=0;orthogonalLoop=1;jettySize=auto;html=1;exitX=1;exitY=0.5;exitDx=0;exitDy=0;exitPerimeter=0;entryX=0;entryY=0.5;entryDx=0;entryDy=0;" edge="1" parent="1" source="FhhzzfspUSYX_n4B29iU-48" target="FhhzzfspUSYX_n4B29iU-25">
          <mxGeometry relative="1" as="geometry" />
        </mxCell>
        <mxCell id="FhhzzfspUSYX_n4B29iU-48" value="" style="sketch=0;points=[[0,0,0],[0.25,0,0],[0.5,0,0],[0.75,0,0],[1,0,0],[0,1,0],[0.25,1,0],[0.5,1,0],[0.75,1,0],[1,1,0],[0,0.25,0],[0,0.5,0],[0,0.75,0],[1,0.25,0],[1,0.5,0],[1,0.75,0]];outlineConnect=0;fontColor=#232F3E;fillColor=#8C4FFF;strokeColor=#ffffff;dashed=0;verticalLabelPosition=bottom;verticalAlign=top;align=center;html=1;fontSize=12;fontStyle=0;aspect=fixed;shape=mxgraph.aws4.resourceIcon;resIcon=mxgraph.aws4.managed_streaming_for_kafka;" vertex="1" parent="1">
          <mxGeometry x="330" y="256" width="78" height="78" as="geometry" />
        </mxCell>
        <mxCell id="FhhzzfspUSYX_n4B29iU-51" style="edgeStyle=orthogonalEdgeStyle;rounded=0;orthogonalLoop=1;jettySize=auto;html=1;exitX=0.995;exitY=0.63;exitDx=0;exitDy=0;exitPerimeter=0;entryX=0;entryY=0.75;entryDx=0;entryDy=0;entryPerimeter=0;" edge="1" parent="1" source="FhhzzfspUSYX_n4B29iU-22" target="FhhzzfspUSYX_n4B29iU-48">
          <mxGeometry relative="1" as="geometry" />
        </mxCell>
        <mxCell id="FhhzzfspUSYX_n4B29iU-52" style="edgeStyle=orthogonalEdgeStyle;rounded=0;orthogonalLoop=1;jettySize=auto;html=1;exitX=0.995;exitY=0.63;exitDx=0;exitDy=0;exitPerimeter=0;entryX=0.5;entryY=1;entryDx=0;entryDy=0;entryPerimeter=0;" edge="1" parent="1" source="FhhzzfspUSYX_n4B29iU-20" target="FhhzzfspUSYX_n4B29iU-48">
          <mxGeometry relative="1" as="geometry" />
        </mxCell>
        <mxCell id="FhhzzfspUSYX_n4B29iU-56" style="edgeStyle=orthogonalEdgeStyle;rounded=0;orthogonalLoop=1;jettySize=auto;html=1;entryX=1;entryY=0.5;entryDx=0;entryDy=0;" edge="1" parent="1" source="FhhzzfspUSYX_n4B29iU-54" target="FhhzzfspUSYX_n4B29iU-25">
          <mxGeometry relative="1" as="geometry" />
        </mxCell>
        <mxCell id="FhhzzfspUSYX_n4B29iU-54" value="" style="points=[];aspect=fixed;html=1;align=center;shadow=0;dashed=0;fillColor=#FF6A00;strokeColor=none;shape=mxgraph.alibaba_cloud.batchcompute;" vertex="1" parent="1">
          <mxGeometry x="700" y="260" width="87.76" height="90" as="geometry" />
        </mxCell>
        <mxCell id="FhhzzfspUSYX_n4B29iU-55" style="edgeStyle=orthogonalEdgeStyle;rounded=0;orthogonalLoop=1;jettySize=auto;html=1;exitX=1;exitY=0.5;exitDx=0;exitDy=0;entryX=0.023;entryY=0.544;entryDx=0;entryDy=0;entryPerimeter=0;" edge="1" parent="1" source="FhhzzfspUSYX_n4B29iU-25" target="FhhzzfspUSYX_n4B29iU-54">
          <mxGeometry relative="1" as="geometry" />
        </mxCell>
        <mxCell id="FhhzzfspUSYX_n4B29iU-58" value="Processed Sanitized Data" style="swimlane;horizontal=0;whiteSpace=wrap;html=1;" vertex="1" parent="1">
          <mxGeometry x="890" y="80" width="160" height="440" as="geometry" />
        </mxCell>
        <mxCell id="FhhzzfspUSYX_n4B29iU-63" value="" style="dashed=0;outlineConnect=0;html=1;align=center;labelPosition=center;verticalLabelPosition=bottom;verticalAlign=top;shape=mxgraph.webicons.json;gradientColor=#DFDEDE" vertex="1" parent="FhhzzfspUSYX_n4B29iU-58">
          <mxGeometry x="60" y="23.8" width="80" height="86.2" as="geometry" />
        </mxCell>
        <mxCell id="FhhzzfspUSYX_n4B29iU-62" value="" style="dashed=0;outlineConnect=0;html=1;align=center;labelPosition=center;verticalLabelPosition=bottom;verticalAlign=top;shape=mxgraph.webicons.json;gradientColor=#DFDEDE" vertex="1" parent="FhhzzfspUSYX_n4B29iU-58">
          <mxGeometry x="60" y="140" width="90" height="77" as="geometry" />
        </mxCell>
        <mxCell id="FhhzzfspUSYX_n4B29iU-61" value="" style="dashed=0;outlineConnect=0;html=1;align=center;labelPosition=center;verticalLabelPosition=bottom;verticalAlign=top;shape=mxgraph.webicons.json;gradientColor=#DFDEDE" vertex="1" parent="FhhzzfspUSYX_n4B29iU-58">
          <mxGeometry x="65" y="260" width="80" height="60" as="geometry" />
        </mxCell>
        <mxCell id="FhhzzfspUSYX_n4B29iU-60" value="" style="dashed=0;outlineConnect=0;html=1;align=center;labelPosition=center;verticalLabelPosition=bottom;verticalAlign=top;shape=mxgraph.webicons.json;gradientColor=#DFDEDE" vertex="1" parent="FhhzzfspUSYX_n4B29iU-58">
          <mxGeometry x="60" y="337.6" width="90" height="72.4" as="geometry" />
        </mxCell>
        <mxCell id="FhhzzfspUSYX_n4B29iU-59" style="edgeStyle=orthogonalEdgeStyle;rounded=0;orthogonalLoop=1;jettySize=auto;html=1;entryX=0.02;entryY=0.52;entryDx=0;entryDy=0;entryPerimeter=0;" edge="1" parent="1" source="FhhzzfspUSYX_n4B29iU-54" target="FhhzzfspUSYX_n4B29iU-58">
          <mxGeometry relative="1" as="geometry" />
        </mxCell>
        <mxCell id="FhhzzfspUSYX_n4B29iU-66" style="edgeStyle=orthogonalEdgeStyle;rounded=0;orthogonalLoop=1;jettySize=auto;html=1;" edge="1" parent="1" source="FhhzzfspUSYX_n4B29iU-64">
          <mxGeometry relative="1" as="geometry">
            <mxPoint x="1260" y="320" as="targetPoint" />
          </mxGeometry>
        </mxCell>
        <mxCell id="FhhzzfspUSYX_n4B29iU-64" value="" style="points=[];aspect=fixed;html=1;align=center;shadow=0;dashed=0;fillColor=#FF6A00;strokeColor=none;shape=mxgraph.alibaba_cloud.batchcompute;" vertex="1" parent="1">
          <mxGeometry x="1120" y="260" width="91.65" height="94" as="geometry" />
        </mxCell>
        <mxCell id="FhhzzfspUSYX_n4B29iU-65" style="edgeStyle=orthogonalEdgeStyle;rounded=0;orthogonalLoop=1;jettySize=auto;html=1;exitX=1;exitY=0.5;exitDx=0;exitDy=0;entryX=-0.021;entryY=0.438;entryDx=0;entryDy=0;entryPerimeter=0;" edge="1" parent="1" source="FhhzzfspUSYX_n4B29iU-58" target="FhhzzfspUSYX_n4B29iU-64">
          <mxGeometry relative="1" as="geometry" />
        </mxCell>
        <mxCell id="FhhzzfspUSYX_n4B29iU-71" style="edgeStyle=orthogonalEdgeStyle;rounded=0;orthogonalLoop=1;jettySize=auto;html=1;" edge="1" parent="1" source="FhhzzfspUSYX_n4B29iU-67">
          <mxGeometry relative="1" as="geometry">
            <mxPoint x="1400" y="315" as="targetPoint" />
          </mxGeometry>
        </mxCell>
        <mxCell id="FhhzzfspUSYX_n4B29iU-67" value="" style="sketch=0;outlineConnect=0;fontColor=#232F3E;gradientColor=none;fillColor=#8C4FFF;strokeColor=none;dashed=0;verticalLabelPosition=bottom;verticalAlign=top;align=center;html=1;fontSize=12;fontStyle=0;aspect=fixed;pointerEvents=1;shape=mxgraph.aws4.datazone_data_projects;" vertex="1" parent="1">
          <mxGeometry x="1260" y="276" width="78" height="78" as="geometry" />
        </mxCell>
        <mxCell id="FhhzzfspUSYX_n4B29iU-68" value="Combined Sentiment data in Parquet" style="text;html=1;align=center;verticalAlign=middle;whiteSpace=wrap;rounded=0;" vertex="1" parent="1">
          <mxGeometry x="1260" y="232.5" width="91" height="29" as="geometry" />
        </mxCell>
        <mxCell id="FhhzzfspUSYX_n4B29iU-69" value="" style="editableCssRules=.*;html=1;shape=image;verticalLabelPosition=bottom;labelBackgroundColor=#ffffff;verticalAlign=top;aspect=fixed;imageAspect=0;image=data:image/svg+xml,PHN2ZyB4bWxucz0iaHR0cDovL3d3dy53My5vcmcvMjAwMC9zdmciIHhtbG5zOnY9Imh0dHBzOi8vdmVjdGEuaW8vbmFubyIgd2lkdGg9IjIwIiBoZWlnaHQ9IjE5Ljk4OTk5OTc3MTExODE2NCIgdmlld0JveD0iMCAwIDIwIDE5Ljk4OTk5OTc3MTExODE2NCI+JiN4YTsJPHN0eWxlIHR5cGU9InRleHQvY3NzIj4mI3hhOwkuc3Qwe2ZpbGw6IzQyODVmNDt9JiN4YTsJLnN0MXtmaWxsOiM2NjlkZjY7fSYjeGE7CS5zdDJ7ZmlsbDojYWVjYmZhO30mI3hhOwk8L3N0eWxlPiYjeGE7CTxwYXRoIGNsYXNzPSJzdDEiIGQ9Ik0zIDMuOTlMMCA2LjQydjcuMTNsMyAyLjQ0eiIvPiYjeGE7CTxwYXRoIGNsYXNzPSJzdDAiIGQ9Ik0zIDMuOTlsLTMgNCAzLTJ6bS0zIDhsMyA0di0yeiIvPiYjeGE7CTxwYXRoIGNsYXNzPSJzdDIiIGQ9Ik0wIDE1Ljk5bDQgNCAyLTItNi02em0uMDEtOEw1Ljk5IDJsLTItMkwwIDMuOTl6Ii8+JiN4YTsJPHBhdGggY2xhc3M9InN0MSIgZD0iTTE3IDE2bDMtMi40MlY2LjQ0TDE3IDR6Ii8+JiN4YTsJPHBhdGggY2xhc3M9InN0MCIgZD0iTTE3IDE2bDMtNC0zIDJ6bTMtOGwtMy00djJ6Ii8+JiN4YTsJPGcgY2xhc3M9InN0MiI+JiN4YTsJCTxwYXRoIGQ9Ik0yMCA0bC00LTQtMiAyIDYgNnptLS4wMSA4bC01Ljk4IDUuOTkgMiAyTDIwIDE2eiIvPiYjeGE7CQk8Y2lyY2xlIGN4PSI2IiBjeT0iOS45OSIgcj0iMSIvPiYjeGE7CQk8Y2lyY2xlIGN4PSIxMCIgY3k9IjkuOTkiIHI9IjEiLz4mI3hhOwkJPGNpcmNsZSBjeD0iMTMuOTkiIGN5PSI5Ljk5IiByPSIxIi8+JiN4YTsJPC9nPiYjeGE7PC9zdmc+;" vertex="1" parent="1">
          <mxGeometry x="1135.82" y="190" width="60" height="60" as="geometry" />
        </mxCell>
        <mxCell id="FhhzzfspUSYX_n4B29iU-70" value="" style="editableCssRules=.*;html=1;shape=image;verticalLabelPosition=bottom;labelBackgroundColor=#ffffff;verticalAlign=top;aspect=fixed;imageAspect=0;image=data:image/svg+xml,PHN2ZyB4bWxucz0iaHR0cDovL3d3dy53My5vcmcvMjAwMC9zdmciIHhtbG5zOnY9Imh0dHBzOi8vdmVjdGEuaW8vbmFubyIgd2lkdGg9IjIwIiBoZWlnaHQ9IjE5Ljk4OTk5OTc3MTExODE2NCIgdmlld0JveD0iMCAwIDIwIDE5Ljk4OTk5OTc3MTExODE2NCI+JiN4YTsJPHN0eWxlIHR5cGU9InRleHQvY3NzIj4mI3hhOwkuc3Qwe2ZpbGw6IzQyODVmNDt9JiN4YTsJLnN0MXtmaWxsOiM2NjlkZjY7fSYjeGE7CS5zdDJ7ZmlsbDojYWVjYmZhO30mI3hhOwk8L3N0eWxlPiYjeGE7CTxwYXRoIGNsYXNzPSJzdDEiIGQ9Ik0zIDMuOTlMMCA2LjQydjcuMTNsMyAyLjQ0eiIvPiYjeGE7CTxwYXRoIGNsYXNzPSJzdDAiIGQ9Ik0zIDMuOTlsLTMgNCAzLTJ6bS0zIDhsMyA0di0yeiIvPiYjeGE7CTxwYXRoIGNsYXNzPSJzdDIiIGQ9Ik0wIDE1Ljk5bDQgNCAyLTItNi02em0uMDEtOEw1Ljk5IDJsLTItMkwwIDMuOTl6Ii8+JiN4YTsJPHBhdGggY2xhc3M9InN0MSIgZD0iTTE3IDE2bDMtMi40MlY2LjQ0TDE3IDR6Ii8+JiN4YTsJPHBhdGggY2xhc3M9InN0MCIgZD0iTTE3IDE2bDMtNC0zIDJ6bTMtOGwtMy00djJ6Ii8+JiN4YTsJPGcgY2xhc3M9InN0MiI+JiN4YTsJCTxwYXRoIGQ9Ik0yMCA0bC00LTQtMiAyIDYgNnptLS4wMSA4bC01Ljk4IDUuOTkgMiAyTDIwIDE2eiIvPiYjeGE7CQk8Y2lyY2xlIGN4PSI2IiBjeT0iOS45OSIgcj0iMSIvPiYjeGE7CQk8Y2lyY2xlIGN4PSIxMCIgY3k9IjkuOTkiIHI9IjEiLz4mI3hhOwkJPGNpcmNsZSBjeD0iMTMuOTkiIGN5PSI5Ljk5IiByPSIxIi8+JiN4YTsJPC9nPiYjeGE7PC9zdmc+;" vertex="1" parent="1">
          <mxGeometry x="710" y="190" width="60" height="60" as="geometry" />
        </mxCell>
        <mxCell id="FhhzzfspUSYX_n4B29iU-72" value="" style="points=[];aspect=fixed;html=1;align=center;shadow=0;dashed=0;fillColor=#FF6A00;strokeColor=none;shape=mxgraph.alibaba_cloud.batchcompute;" vertex="1" parent="1">
          <mxGeometry x="1400" y="266.1" width="91.65" height="94" as="geometry" />
        </mxCell>
        <mxCell id="FhhzzfspUSYX_n4B29iU-73" value="" style="editableCssRules=.*;html=1;shape=image;verticalLabelPosition=bottom;labelBackgroundColor=#ffffff;verticalAlign=top;aspect=fixed;imageAspect=0;image=data:image/svg+xml,PHN2ZyB4bWxucz0iaHR0cDovL3d3dy53My5vcmcvMjAwMC9zdmciIHhtbG5zOnY9Imh0dHBzOi8vdmVjdGEuaW8vbmFubyIgd2lkdGg9IjIwIiBoZWlnaHQ9IjE5Ljk4OTk5OTc3MTExODE2NCIgdmlld0JveD0iMCAwIDIwIDE5Ljk4OTk5OTc3MTExODE2NCI+JiN4YTsJPHN0eWxlIHR5cGU9InRleHQvY3NzIj4mI3hhOwkuc3Qwe2ZpbGw6IzQyODVmNDt9JiN4YTsJLnN0MXtmaWxsOiM2NjlkZjY7fSYjeGE7CS5zdDJ7ZmlsbDojYWVjYmZhO30mI3hhOwk8L3N0eWxlPiYjeGE7CTxwYXRoIGNsYXNzPSJzdDEiIGQ9Ik0zIDMuOTlMMCA2LjQydjcuMTNsMyAyLjQ0eiIvPiYjeGE7CTxwYXRoIGNsYXNzPSJzdDAiIGQ9Ik0zIDMuOTlsLTMgNCAzLTJ6bS0zIDhsMyA0di0yeiIvPiYjeGE7CTxwYXRoIGNsYXNzPSJzdDIiIGQ9Ik0wIDE1Ljk5bDQgNCAyLTItNi02em0uMDEtOEw1Ljk5IDJsLTItMkwwIDMuOTl6Ii8+JiN4YTsJPHBhdGggY2xhc3M9InN0MSIgZD0iTTE3IDE2bDMtMi40MlY2LjQ0TDE3IDR6Ii8+JiN4YTsJPHBhdGggY2xhc3M9InN0MCIgZD0iTTE3IDE2bDMtNC0zIDJ6bTMtOGwtMy00djJ6Ii8+JiN4YTsJPGcgY2xhc3M9InN0MiI+JiN4YTsJCTxwYXRoIGQ9Ik0yMCA0bC00LTQtMiAyIDYgNnptLS4wMSA4bC01Ljk4IDUuOTkgMiAyTDIwIDE2eiIvPiYjeGE7CQk8Y2lyY2xlIGN4PSI2IiBjeT0iOS45OSIgcj0iMSIvPiYjeGE7CQk8Y2lyY2xlIGN4PSIxMCIgY3k9IjkuOTkiIHI9IjEiLz4mI3hhOwkJPGNpcmNsZSBjeD0iMTMuOTkiIGN5PSI5Ljk5IiByPSIxIi8+JiN4YTsJPC9nPiYjeGE7PC9zdmc+;" vertex="1" parent="1">
          <mxGeometry x="1415.82" y="196.1" width="60" height="60" as="geometry" />
        </mxCell>
        <mxCell id="FhhzzfspUSYX_n4B29iU-74" value="Sentiment Data" style="swimlane;horizontal=0;whiteSpace=wrap;html=1;" vertex="1" parent="1">
          <mxGeometry x="1530" y="190" width="150" height="180" as="geometry" />
        </mxCell>
        <mxCell id="FhhzzfspUSYX_n4B29iU-83" value="" style="sketch=0;outlineConnect=0;fontColor=#232F3E;gradientColor=none;fillColor=#8C4FFF;strokeColor=none;dashed=0;verticalLabelPosition=bottom;verticalAlign=top;align=center;html=1;fontSize=12;fontStyle=0;aspect=fixed;pointerEvents=1;shape=mxgraph.aws4.datazone_data_projects;" vertex="1" parent="FhhzzfspUSYX_n4B29iU-74">
          <mxGeometry x="50" y="30" width="78" height="78" as="geometry" />
        </mxCell>
        <mxCell id="FhhzzfspUSYX_n4B29iU-84" value="Processed Sentiment data" style="text;html=1;align=center;verticalAlign=middle;whiteSpace=wrap;rounded=0;" vertex="1" parent="FhhzzfspUSYX_n4B29iU-74">
          <mxGeometry x="43.5" y="130" width="91" height="29" as="geometry" />
        </mxCell>
        <mxCell id="FhhzzfspUSYX_n4B29iU-79" style="edgeStyle=orthogonalEdgeStyle;rounded=0;orthogonalLoop=1;jettySize=auto;html=1;entryX=0.013;entryY=0.537;entryDx=0;entryDy=0;entryPerimeter=0;" edge="1" parent="1" source="FhhzzfspUSYX_n4B29iU-72" target="FhhzzfspUSYX_n4B29iU-74">
          <mxGeometry relative="1" as="geometry" />
        </mxCell>
        <mxCell id="FhhzzfspUSYX_n4B29iU-89" value="" style="rounded=1;whiteSpace=wrap;html=1;textOpacity=0;" vertex="1" parent="1">
          <mxGeometry x="1720" y="60" width="160" height="530" as="geometry" />
        </mxCell>
        <mxCell id="FhhzzfspUSYX_n4B29iU-81" value="" style="image;aspect=fixed;html=1;points=[];align=center;fontSize=12;image=img/lib/azure2/power_platform/PowerBI.svg;" vertex="1" parent="1">
          <mxGeometry x="1801" y="90" width="51" height="68" as="geometry" />
        </mxCell>
        <mxCell id="FhhzzfspUSYX_n4B29iU-85" value="" style="image;aspect=fixed;html=1;points=[];align=center;fontSize=12;image=img/lib/azure2/preview/Azure_Workbooks.svg;" vertex="1" parent="1">
          <mxGeometry x="1780" y="269" width="72" height="72" as="geometry" />
        </mxCell>
        <mxCell id="FhhzzfspUSYX_n4B29iU-87" value="" style="points=[];aspect=fixed;html=1;align=center;shadow=0;dashed=0;fillColor=#FF6A00;strokeColor=none;shape=mxgraph.alibaba_cloud.webplus_web_app_service;" vertex="1" parent="1">
          <mxGeometry x="1789" y="410" width="54.900000000000006" height="54.900000000000006" as="geometry" />
        </mxCell>
        <mxCell id="FhhzzfspUSYX_n4B29iU-86" style="edgeStyle=orthogonalEdgeStyle;rounded=0;orthogonalLoop=1;jettySize=auto;html=1;exitX=1;exitY=0.75;exitDx=0;exitDy=0;" edge="1" parent="1" source="FhhzzfspUSYX_n4B29iU-74" target="FhhzzfspUSYX_n4B29iU-85">
          <mxGeometry relative="1" as="geometry" />
        </mxCell>
        <mxCell id="FhhzzfspUSYX_n4B29iU-82" style="edgeStyle=orthogonalEdgeStyle;rounded=0;orthogonalLoop=1;jettySize=auto;html=1;exitX=1;exitY=0.5;exitDx=0;exitDy=0;entryX=0.02;entryY=0.721;entryDx=0;entryDy=0;entryPerimeter=0;" edge="1" parent="1" source="FhhzzfspUSYX_n4B29iU-74" target="FhhzzfspUSYX_n4B29iU-81">
          <mxGeometry relative="1" as="geometry" />
        </mxCell>
        <mxCell id="FhhzzfspUSYX_n4B29iU-88" style="edgeStyle=orthogonalEdgeStyle;rounded=0;orthogonalLoop=1;jettySize=auto;html=1;exitX=1;exitY=0.25;exitDx=0;exitDy=0;entryX=0.018;entryY=0.692;entryDx=0;entryDy=0;entryPerimeter=0;" edge="1" parent="1" source="FhhzzfspUSYX_n4B29iU-74" target="FhhzzfspUSYX_n4B29iU-87">
          <mxGeometry relative="1" as="geometry" />
        </mxCell>
        <mxCell id="FhhzzfspUSYX_n4B29iU-90" value="Presentation Layer" style="text;html=1;align=center;verticalAlign=middle;whiteSpace=wrap;rounded=0;" vertex="1" parent="1">
          <mxGeometry x="1752.9" y="20" width="91" height="29" as="geometry" />
        </mxCell>
        <mxCell id="FhhzzfspUSYX_n4B29iU-91" value="Amazon S3" style="sketch=0;outlineConnect=0;fontColor=#232F3E;gradientColor=none;strokeColor=#ffffff;fillColor=#232F3E;dashed=0;verticalLabelPosition=middle;verticalAlign=bottom;align=center;html=1;whiteSpace=wrap;fontSize=10;fontStyle=1;spacing=3;shape=mxgraph.aws4.productIcon;prIcon=mxgraph.aws4.s3;" vertex="1" parent="1">
          <mxGeometry x="950" y="20" width="60" height="66" as="geometry" />
        </mxCell>
        <mxCell id="FhhzzfspUSYX_n4B29iU-92" value="Amazon S3" style="sketch=0;outlineConnect=0;fontColor=#232F3E;gradientColor=none;strokeColor=#ffffff;fillColor=#232F3E;dashed=0;verticalLabelPosition=middle;verticalAlign=bottom;align=center;html=1;whiteSpace=wrap;fontSize=10;fontStyle=1;spacing=3;shape=mxgraph.aws4.productIcon;prIcon=mxgraph.aws4.s3;" vertex="1" parent="1">
          <mxGeometry x="1275.5" y="354" width="60" height="66" as="geometry" />
        </mxCell>
        <mxCell id="FhhzzfspUSYX_n4B29iU-93" value="Amazon S3" style="sketch=0;outlineConnect=0;fontColor=#232F3E;gradientColor=none;strokeColor=#ffffff;fillColor=#232F3E;dashed=0;verticalLabelPosition=middle;verticalAlign=bottom;align=center;html=1;whiteSpace=wrap;fontSize=10;fontStyle=1;spacing=3;shape=mxgraph.aws4.productIcon;prIcon=mxgraph.aws4.s3;" vertex="1" parent="1">
          <mxGeometry x="1580" y="370" width="70" height="66" as="geometry" />
        </mxCell>
        <mxCell id="FhhzzfspUSYX_n4B29iU-94" value="Amazon S3" style="sketch=0;outlineConnect=0;fontColor=#232F3E;gradientColor=none;strokeColor=#ffffff;fillColor=#232F3E;dashed=0;verticalLabelPosition=middle;verticalAlign=bottom;align=center;html=1;whiteSpace=wrap;fontSize=10;fontStyle=1;spacing=3;shape=mxgraph.aws4.productIcon;prIcon=mxgraph.aws4.s3;" vertex="1" parent="1">
          <mxGeometry x="168.25" y="789" width="60" height="66" as="geometry" />
        </mxCell>
        <mxCell id="FhhzzfspUSYX_n4B29iU-95" value="Amazon S3" style="sketch=0;outlineConnect=0;fontColor=#232F3E;gradientColor=none;strokeColor=#ffffff;fillColor=#232F3E;dashed=0;verticalLabelPosition=middle;verticalAlign=bottom;align=center;html=1;whiteSpace=wrap;fontSize=10;fontStyle=1;spacing=3;shape=mxgraph.aws4.productIcon;prIcon=mxgraph.aws4.s3;" vertex="1" parent="1">
          <mxGeometry x="620" y="390" width="60" height="66" as="geometry" />
        </mxCell>
        <mxCell id="FhhzzfspUSYX_n4B29iU-96" value="Compute Function" style="text;html=1;align=center;verticalAlign=middle;whiteSpace=wrap;rounded=0;" vertex="1" parent="1">
          <mxGeometry x="1120" y="150" width="91" height="29" as="geometry" />
        </mxCell>
        <mxCell id="FhhzzfspUSYX_n4B29iU-97" value="Compute Function" style="text;html=1;align=center;verticalAlign=middle;whiteSpace=wrap;rounded=0;" vertex="1" parent="1">
          <mxGeometry x="1400.65" y="158" width="91" height="29" as="geometry" />
        </mxCell>
        <mxCell id="FhhzzfspUSYX_n4B29iU-98" value="Compute Function" style="text;html=1;align=center;verticalAlign=middle;whiteSpace=wrap;rounded=0;" vertex="1" parent="1">
          <mxGeometry x="694.5" y="140.5" width="91" height="29" as="geometry" />
        </mxCell>
        <mxCell id="FhhzzfspUSYX_n4B29iU-101" value="Ingestion Layer Live streaming Via Apache Kafka" style="text;html=1;align=center;verticalAlign=middle;whiteSpace=wrap;rounded=0;" vertex="1" parent="1">
          <mxGeometry x="299.5" y="-40" width="91" height="29" as="geometry" />
        </mxCell>
        <mxCell id="FhhzzfspUSYX_n4B29iU-106" value="Scheduled Batch Processing via Airflow" style="text;html=1;align=center;verticalAlign=middle;whiteSpace=wrap;rounded=0;" vertex="1" parent="1">
          <mxGeometry x="1160" y="-50" width="160" height="70" as="geometry" />
        </mxCell>
        <mxCell id="FhhzzfspUSYX_n4B29iU-109" value="" style="image;sketch=0;aspect=fixed;html=1;points=[];align=center;fontSize=12;image=img/lib/mscae/Docker.svg;" vertex="1" parent="1">
          <mxGeometry x="880" y="-140" width="50" height="41" as="geometry" />
        </mxCell>
        <mxCell id="FhhzzfspUSYX_n4B29iU-110" value="Docker Conteinerized Solution" style="text;html=1;align=center;verticalAlign=middle;whiteSpace=wrap;rounded=0;" vertex="1" parent="1">
          <mxGeometry x="930" y="-154.5" width="155.5" height="70" as="geometry" />
        </mxCell>
      </root>
    </mxGraphModel>
  </diagram>
</mxfile>
